<svg xmlns="http://www.w3.org/2000/svg" xmlns:xlink="http://www.w3.org/1999/xlink" version="1.1" x="0px" y="0px" viewBox="0 0 100 125" enable-background="new 0 0 100 100" xml:space="preserve"><g><g><path d="M82.1,20.871c-0.016-0.801-0.563-1.254-1.171-1.478l-28.733-7.502c-0.676-0.169-1.395-0.363-2.068-0.363    c-0.676,0-1.315,0.145-1.889,0.417l-0.7,0.405L20.045,28.321c-0.091,0.061-0.179,0.127-0.267,0.193    c-4.291,2.829-5.058,5.846-5.058,9.212V69.36c0,1.614,0.858,3.028,2.147,3.809l0.03,0.019l27.661,15.958    c0.3,0.182,0.655,0.287,1.031,0.287c1.098,0,1.989-0.889,1.989-1.982V55.457c0-1.535-0.779-2.887-1.962-3.688l-0.618-0.351    L22.58,38.776c-1.725-1.019-1.88-3.013-1.364-4.21c0.743-1.711,2.565-2.041,3.832-1.732l23.328,5.976    c0.785,0.181,1.349,0.344,2.056,0.344c0.715,0,1.391-0.166,1.992-0.465l0.4-0.227l28.079-15.835    C81.414,22.27,82.118,21.666,82.1,20.871z M83.655,32.492l-6.916-3.805l-5.536,3.207c0,0,6.349,3.5,7.419,4.225    c1.295,0.876,0.785,2.164-0.07,2.645L56.119,51.419l-0.609,0.342c-0.003,0.003-0.007,0.006-0.01,0.009    c-1.186,0.801-1.961,2.152-1.961,3.688V87.45c0,1.094,0.888,1.982,1.985,1.982c0.343,0,0.667-0.088,0.949-0.241    c0.027-0.013,0.055-0.028,0.082-0.046l27.651-15.953l0.039-0.023c1.286-0.78,2.146-2.194,2.146-3.809V37.727    C86.393,34.967,85.708,33.647,83.655,32.492z"/></g></g></svg>